REM DIRINDEX 1\2,1\3
REM DIRNAME folder01,folder02,folder03
TITLE ""
FILE "2000 phrasesTrack01.mp3" MP3
  TRACK 01 AUDIO
    TITLE "0:"
    INDEX 01 00:00:00
  TRACK 02 AUDIO
    TITLE "2:cjc143_0001"
    INDEX 01 00:00:13
  TRACK 03 AUDIO
    TITLE "0:"
    INDEX 01 00:01:07
  TRACK 04 AUDIO
    TITLE "2:cjc143_0002"
    INDEX 01 00:01:50
  TRACK 05 AUDIO
    TITLE "0:"
    INDEX 01 00:03:14
  TRACK 06 AUDIO
    TITLE "2:cjc143_0003"
    INDEX 01 00:03:59
  TRACK 07 AUDIO
    TITLE "0:"
    INDEX 01 00:05:26
  TRACK 08 AUDIO
    TITLE "2:cjc143_0004"
    INDEX 01 00:05:71
  TRACK 09 AUDIO
    TITLE "0:"
    INDEX 01 00:07:05
  TRACK 10 AUDIO
    TITLE "2:cjc143_0005"
    INDEX 01 00:07:49
  TRACK 11 AUDIO
    TITLE "0:"
    INDEX 01 00:08:66
  TRACK 12 AUDIO
    TITLE "2:cjc143_0006"
    INDEX 01 00:09:36
  TRACK 13 AUDIO
    TITLE "0:"
    INDEX 01 00:10:55
  TRACK 14 AUDIO
    TITLE "2:cjc143_0007"
    INDEX 01 00:11:29
  TRACK 15 AUDIO
    TITLE "0:"
    INDEX 01 00:12:52
  TRACK 16 AUDIO
    TITLE "2:cjc143_0008"
    INDEX 01 00:13:20
  TRACK 17 AUDIO
    TITLE "0:"
    INDEX 01 00:15:19
  TRACK 18 AUDIO
    TITLE "2:cjc143_0009"
    INDEX 01 00:15:66
  TRACK 19 AUDIO
    TITLE "0:"
    INDEX 01 00:17:43
  TRACK 20 AUDIO
    TITLE "2:cjc143_0010"
    INDEX 01 00:18:17
  TRACK 21 AUDIO
    TITLE "0:"
    INDEX 01 00:19:50
  TRACK 22 AUDIO
    TITLE "2:cjc143_0011"
    INDEX 01 00:20:16
  TRACK 23 AUDIO
    TITLE "0:"
    INDEX 01 00:21:13
  TRACK 24 AUDIO
    TITLE "2:cjc143_0012"
    INDEX 01 00:21:58
  TRACK 25 AUDIO
    TITLE "0:"
    INDEX 01 00:23:24
  TRACK 26 AUDIO
    TITLE "2:cjc143_0013"
    INDEX 01 00:23:69
  TRACK 27 AUDIO
    TITLE "0:"
    INDEX 01 00:25:29
  TRACK 28 AUDIO
    TITLE "2:cjc143_0014"
    INDEX 01 00:25:74
  TRACK 29 AUDIO
    TITLE "0:"
    INDEX 01 00:27:63
  TRACK 30 AUDIO
    TITLE "2:cjc143_0015"
    INDEX 01 00:28:31
  TRACK 31 AUDIO
    TITLE "0:"
    INDEX 01 00:29:68
  TRACK 32 AUDIO
    TITLE "2:cjc143_0016"
    INDEX 01 00:30:36
  TRACK 33 AUDIO
    TITLE "0:"
    INDEX 01 00:32:01
  TRACK 34 AUDIO
    TITLE "2:cjc143_0017"
    INDEX 01 00:32:43
  TRACK 35 AUDIO
    TITLE "0:"
    INDEX 01 00:34:02
  TRACK 36 AUDIO
    TITLE "2:cjc143_0018"
    INDEX 01 00:34:47
  TRACK 37 AUDIO
    TITLE "0:"
    INDEX 01 00:35:59
  TRACK 38 AUDIO
    TITLE "2:cjc143_0019"
    INDEX 01 00:36:27
  TRACK 39 AUDIO
    TITLE "0:"
    INDEX 01 00:37:73
  TRACK 40 AUDIO
    TITLE "2:cjc143_0020"
    INDEX 01 00:38:28
  TRACK 41 AUDIO
    TITLE "0:"
    INDEX 01 00:40:01
  TRACK 42 AUDIO
    TITLE "2:cjc143_0021"
    INDEX 01 00:40:44
  TRACK 43 AUDIO
    TITLE "0:"
    INDEX 01 00:42:12
  TRACK 44 AUDIO
    TITLE "2:cjc143_0022"
    INDEX 01 00:42:61
  TRACK 45 AUDIO
    TITLE "0:"
    INDEX 01 00:44:28
  TRACK 46 AUDIO
    TITLE "2:cjc143_0023"
    INDEX 01 00:44:71
  TRACK 47 AUDIO
    TITLE "0:"
    INDEX 01 00:46:41
  TRACK 48 AUDIO
    TITLE "2:cjc143_0024"
    INDEX 01 00:47:07
  TRACK 49 AUDIO
    TITLE "0:"
    INDEX 01 00:48:38
  TRACK 50 AUDIO
    TITLE "2:cjc143_0025"
    INDEX 01 00:49:08
  TRACK 51 AUDIO
    TITLE "0:"
    INDEX 01 00:50:37
  TRACK 52 AUDIO
    TITLE "2:cjc143_0026"
    INDEX 01 00:51:05
  TRACK 53 AUDIO
    TITLE "0:"
    INDEX 01 00:52:47
  TRACK 54 AUDIO
    TITLE "2:cjc143_0027"
    INDEX 01 00:53:13
  TRACK 55 AUDIO
    TITLE "0:"
    INDEX 01 00:54:54
  TRACK 56 AUDIO
    TITLE "2:cjc143_0028"
    INDEX 01 00:55:24
  TRACK 57 AUDIO
    TITLE "0:"
    INDEX 01 00:56:24
  TRACK 58 AUDIO
    TITLE "2:cjc143_0029"
    INDEX 01 00:56:71
  TRACK 59 AUDIO
    TITLE "0:"
    INDEX 01 00:58:17
  TRACK 60 AUDIO
    TITLE "2:cjc143_0030"
    INDEX 01 00:58:67
  TRACK 61 AUDIO
    TITLE "0:"
    INDEX 01 01:00:68
  TRACK 62 AUDIO
    TITLE "2:cjc143_0031"
    INDEX 01 01:01:38
  TRACK 63 AUDIO
    TITLE "0:"
    INDEX 01 01:02:55
  TRACK 64 AUDIO
    TITLE "2:cjc143_0032"
    INDEX 01 01:03:26
  TRACK 65 AUDIO
    TITLE "0:"
    INDEX 01 01:04:50
  TRACK 66 AUDIO
    TITLE "2:cjc143_0033"
    INDEX 01 01:05:21
  TRACK 67 AUDIO
    TITLE "0:"
    INDEX 01 01:06:71
  TRACK 68 AUDIO
    TITLE "2:cjc143_0034"
    INDEX 01 01:07:43
  TRACK 69 AUDIO
    TITLE "0:"
    INDEX 01 01:09:20
  TRACK 70 AUDIO
    TITLE "2:cjc143_0035"
    INDEX 01 01:09:61
  TRACK 71 AUDIO
    TITLE "0:"
    INDEX 01 01:11:37
  TRACK 72 AUDIO
    TITLE "2:cjc143_0036"
    INDEX 01 01:12:07
  TRACK 73 AUDIO
    TITLE "0:"
    INDEX 01 01:13:32
  TRACK 74 AUDIO
    TITLE "2:cjc143_0037"
    INDEX 01 01:14:00
  TRACK 75 AUDIO
    TITLE "0:"
    INDEX 01 01:15:29
  TRACK 76 AUDIO
    TITLE "2:cjc143_0038"
    INDEX 01 01:15:72
  TRACK 77 AUDIO
    TITLE "0:"
    INDEX 01 01:17:28
  TRACK 78 AUDIO
    TITLE "2:cjc143_0039"
    INDEX 01 01:17:59
  TRACK 79 AUDIO
    TITLE "0:"
    INDEX 01 01:19:13
  TRACK 80 AUDIO
    TITLE "2:cjc143_0040"
    INDEX 01 01:19:58
  TRACK 81 AUDIO
    TITLE "0:"
    INDEX 01 01:21:14
  TRACK 82 AUDIO
    TITLE "2:cjc143_0041"
    INDEX 01 01:21:57
  TRACK 83 AUDIO
    TITLE "0:"
    INDEX 01 01:23:07
